<svg width="16" height="19" viewBox="0 0 16 19" fill="none" xmlns="http://www.w3.org/2000/svg">
<path d="M5.7952 17C6.38281 17.5186 7.15468 17.8333 8.00006 17.8333C8.84543 17.8333 9.6173 17.5186 10.2049 17M13.0001 6.16667C13.0001 4.84059 12.4733 3.56882 11.5356 2.63114C10.5979 1.69346 9.32614 1.16667 8.00006 1.16667C6.67397 1.16667 5.4022 1.69346 4.46452 2.63114C3.52684 3.56882 3.00006 4.84059 3.00006 6.16667C3.00006 8.74183 2.35045 10.505 1.62478 11.6712C1.01266 12.6549 0.706605 13.1468 0.717827 13.284C0.730253 13.4359 0.76244 13.4938 0.88487 13.5847C0.995439 13.6667 1.49388 13.6667 2.49077 13.6667H13.5093C14.5062 13.6667 15.0047 13.6667 15.1152 13.5847C15.2377 13.4938 15.2699 13.4359 15.2823 13.284C15.2935 13.1468 14.9875 12.6549 14.3753 11.6712C13.6497 10.505 13.0001 8.74183 13.0001 6.16667Z" stroke="#979797" stroke-width="1.25" stroke-linecap="round" stroke-linejoin="round"/>
</svg>
