<svg width="18" height="18" viewBox="0 0 18 18" fill="none" xmlns="http://www.w3.org/2000/svg">
<ellipse cx="5.66667" cy="10.6667" rx="0.833333" ry="0.833333" fill="#979797"/>
<ellipse cx="9" cy="10.6667" rx="0.833333" ry="0.833333" fill="#979797"/>
<circle cx="12.3333" cy="10.6667" r="0.833333" fill="#979797"/>
<ellipse cx="5.66667" cy="14" rx="0.833333" ry="0.833333" fill="#979797"/>
<circle cx="9" cy="14" r="0.833333" fill="#979797"/>
<ellipse cx="12.3333" cy="14" rx="0.833333" ry="0.833333" fill="#979797"/>
<path d="M16.5 7.33335H1.5M12.3333 0.666687V4.00002M5.66667 0.666687V4.00002M5.5 17.3334H12.5C13.9001 17.3334 14.6002 17.3334 15.135 17.0609C15.6054 16.8212 15.9878 16.4387 16.2275 15.9683C16.5 15.4336 16.5 14.7335 16.5 13.3334V6.33335C16.5 4.93322 16.5 4.23316 16.2275 3.69838C15.9878 3.22797 15.6054 2.84552 15.135 2.60584C14.6002 2.33335 13.9001 2.33335 12.5 2.33335H5.5C4.09987 2.33335 3.3998 2.33335 2.86502 2.60584C2.39462 2.84552 2.01217 3.22797 1.77248 3.69838C1.5 4.23316 1.5 4.93322 1.5 6.33335V13.3334C1.5 14.7335 1.5 15.4336 1.77248 15.9683C2.01217 16.4387 2.39462 16.8212 2.86502 17.0609C3.3998 17.3334 4.09987 17.3334 5.5 17.3334Z" stroke="#979797" stroke-width="1.25" stroke-linecap="round" stroke-linejoin="round"/>
</svg>
