<svg width="18" height="18" viewBox="0 0 18 18" fill="none" xmlns="http://www.w3.org/2000/svg">
<path d="M16.5 6.5L11.1262 10.3384C10.963 10.455 10.8813 10.5133 10.7939 10.5309C10.7168 10.5464 10.637 10.5398 10.5635 10.5119C10.4801 10.4801 10.4092 10.4092 10.2673 10.2673L7.73267 7.73267C7.5908 7.5908 7.51986 7.51986 7.43652 7.48814C7.36305 7.46017 7.28317 7.45356 7.2061 7.46907C7.11868 7.48666 7.03704 7.54497 6.87378 7.66159L1.5 11.5M5.5 16.5H12.5C13.9001 16.5 14.6002 16.5 15.135 16.2275C15.6054 15.9878 15.9878 15.6054 16.2275 15.135C16.5 14.6002 16.5 13.9001 16.5 12.5V5.5C16.5 4.09987 16.5 3.3998 16.2275 2.86502C15.9878 2.39462 15.6054 2.01217 15.135 1.77248C14.6002 1.5 13.9001 1.5 12.5 1.5H5.5C4.09987 1.5 3.3998 1.5 2.86502 1.77248C2.39462 2.01217 2.01217 2.39462 1.77248 2.86502C1.5 3.3998 1.5 4.09987 1.5 5.5V12.5C1.5 13.9001 1.5 14.6002 1.77248 15.135C2.01217 15.6054 2.39462 15.9878 2.86502 16.2275C3.3998 16.5 4.09987 16.5 5.5 16.5Z" stroke="#979797" stroke-width="1.25" stroke-linecap="round" stroke-linejoin="round"/>
</svg>
