<svg width="18" height="18" viewBox="0 0 18 18" fill="none" xmlns="http://www.w3.org/2000/svg">
<path d="M17.3333 16.5V14.8333C17.3333 13.2801 16.271 11.9751 14.8333 11.605M11.9167 1.7423C13.1383 2.23679 14 3.43443 14 4.83333C14 6.23224 13.1383 7.42988 11.9167 7.92437M13.1667 16.5C13.1667 14.9469 13.1667 14.1703 12.9129 13.5577C12.5746 12.741 11.9257 12.092 11.1089 11.7537C10.4964 11.5 9.7198 11.5 8.16666 11.5H5.66666C4.11353 11.5 3.33696 11.5 2.72439 11.7537C1.90763 12.092 1.25871 12.741 0.920399 13.5577C0.666664 14.1703 0.666664 14.9469 0.666664 16.5M10.25 4.83333C10.25 6.67428 8.75761 8.16667 6.91666 8.16667C5.07572 8.16667 3.58333 6.67428 3.58333 4.83333C3.58333 2.99238 5.07572 1.5 6.91666 1.5C8.75761 1.5 10.25 2.99238 10.25 4.83333Z" stroke="#979797" stroke-width="1.25" stroke-linecap="round" stroke-linejoin="round"/>
</svg>
