<svg width="18" height="18" viewBox="0 0 18 18" fill="none" xmlns="http://www.w3.org/2000/svg">
<path d="M9 2.33335V11.6667C9 13.0668 9 13.7669 9.27248 14.3017C9.51217 14.7721 9.89462 15.1545 10.365 15.3942C10.8998 15.6667 11.5999 15.6667 13 15.6667H13.1667M13.1667 15.6667C13.1667 16.5872 13.9129 17.3334 14.8333 17.3334C15.7538 17.3334 16.5 16.5872 16.5 15.6667C16.5 14.7462 15.7538 14 14.8333 14C13.9129 14 13.1667 14.7462 13.1667 15.6667ZM4.83333 2.33335L13.1667 2.33335M4.83333 2.33335C4.83333 3.25383 4.08714 4.00002 3.16667 4.00002C2.24619 4.00002 1.5 3.25383 1.5 2.33335C1.5 1.41288 2.24619 0.666687 3.16667 0.666687C4.08714 0.666687 4.83333 1.41288 4.83333 2.33335ZM13.1667 2.33335C13.1667 3.25383 13.9129 4.00002 14.8333 4.00002C15.7538 4.00002 16.5 3.25383 16.5 2.33335C16.5 1.41288 15.7538 0.666687 14.8333 0.666687C13.9129 0.666687 13.1667 1.41288 13.1667 2.33335ZM9 9.00002H13.1667M13.1667 9.00002C13.1667 9.9205 13.9129 10.6667 14.8333 10.6667C15.7538 10.6667 16.5 9.9205 16.5 9.00002C16.5 8.07955 15.7538 7.33335 14.8333 7.33335C13.9129 7.33335 13.1667 8.07955 13.1667 9.00002Z" stroke="#979797" stroke-width="1.25" stroke-linecap="round" stroke-linejoin="round"/>
</svg>
