<?xml version="1.0" encoding="UTF-8"?>
<svg id="Layer_1" data-name="Layer 1" xmlns="http://www.w3.org/2000/svg" xmlns:xlink="http://www.w3.org/1999/xlink" viewBox="0 0 247.72 248">
  <defs>
    <style>
      .cls-1 {
        fill: #5bbc74;
      }

      .cls-2 {
        mask: url(#mask);
      }

      .cls-3 {
        fill: #34a352;
      }

      .cls-4 {
        fill: #67c37e;
      }

      .cls-5 {
        fill: #138f36;
      }

      .cls-6 {
        fill: #259a45;
      }

      .cls-7 {
        fill: #148f36;
      }

      .cls-8 {
        fill: #3faa5b;
      }

      .cls-9 {
        fill: #4eb469;
      }

      .cls-10 {
        fill: #38a655;
      }

      .cls-11 {
        fill: #54b86e;
      }

      .cls-12 {
        fill: #71ca87;
      }

      .cls-13 {
        fill: #66c37e;
      }

      .cls-14 {
        fill: #6bc682;
      }

      .cls-15 {
        fill: #42ac5e;
      }

      .cls-16 {
        fill: #6dc784;
      }

      .cls-17 {
        fill: #128e35;
      }

      .cls-18 {
        fill: #1e963f;
      }

      .cls-19 {
        fill: #30a14e;
      }

      .cls-20 {
        fill: #5cbd75;
      }

      .cls-21 {
        fill: #179139;
      }

      .cls-22 {
        fill: #45ae61;
      }

      .cls-23 {
        fill: #64c27c;
      }

      .cls-24 {
        fill: #44ae60;
      }

      .cls-25 {
        fill: #52b66c;
      }

      .cls-26 {
        fill: #2ea04d;
      }

      .cls-27 {
        fill: #72ca88;
      }

      .cls-28 {
        fill: #1c943d;
      }

      .cls-29 {
        fill: #6fc885;
      }

      .cls-30 {
        fill: #51b66c;
      }

      .cls-31 {
        fill: #43ad5f;
      }

      .cls-32 {
        fill: #32a250;
      }

      .cls-33 {
        fill: #1a933c;
      }

      .cls-34 {
        fill: #53b76d;
      }

      .cls-35 {
        fill: #4ab266;
      }

      .cls-36 {
        fill: #69c580;
      }

      .cls-37 {
        fill: #6cc783;
      }

      .cls-38 {
        fill: #2d9f4c;
      }

      .cls-39 {
        fill: #2fa04e;
      }

      .cls-40 {
        fill: #159037;
      }

      .cls-41 {
        fill: #4db368;
      }

      .cls-42 {
        fill: #70c986;
      }

      .cls-43 {
        fill: #50b56b;
      }

      .cls-44 {
        fill: #47b063;
      }

      .cls-45 {
        fill: #1b943c;
      }

      .cls-46 {
        fill: #18923a;
      }

      .cls-47 {
        fill: #4fb56a;
      }

      .cls-48 {
        filter: url(#luminosity-invert-noclip);
      }

      .cls-49 {
        fill: #36a554;
      }

      .cls-50 {
        fill: #41ab5d;
      }

      .cls-51 {
        fill: #169138;
      }

      .cls-52 {
        fill: #59bb72;
      }

      .cls-53 {
        fill: #37a554;
      }

      .cls-54 {
        fill: #48b064;
      }

      .cls-55 {
        fill: #5dbd76;
      }

      .cls-56 {
        fill: #4cb367;
      }

      .cls-57 {
        fill: #229842;
      }

      .cls-58 {
        fill: #61c079;
      }

      .cls-59 {
        fill: #3ca859;
      }

      .cls-60 {
        fill: #fff;
      }

      .cls-61 {
        fill: #2b9e4a;
      }

      .cls-62 {
        fill: #31a14f;
      }

      .cls-63 {
        fill: #239943;
      }

      .cls-64 {
        fill: #74cc8a;
      }

      .cls-65 {
        fill: #6ac581;
      }

      .cls-66 {
        fill: #65c27d;
      }

      .cls-67 {
        fill: #5abb73;
      }

      .cls-68 {
        fill: #3da95a;
      }

      .cls-69 {
        fill: #108d33;
      }

      .cls-70 {
        fill: #6ec884;
      }

      .cls-71 {
        fill: #63c17b;
      }

      .cls-72 {
        fill: #4bb266;
      }

      .cls-73 {
        fill: #1f9640;
      }

      .cls-74 {
        fill: #5fbf78;
      }

      .cls-75 {
        fill: #77cd8c;
      }

      .cls-76 {
        fill: #3ba858;
      }

      .cls-77 {
        fill: #2a9d49;
      }

      .cls-78 {
        fill: #2c9e4b;
      }

      .cls-79 {
        fill: #19933b;
      }

      .cls-80 {
        fill: #62c07a;
      }

      .cls-81 {
        fill: #35a453;
      }

      .cls-82 {
        fill: #46af62;
      }

      .cls-83 {
        fill: #3ea95a;
      }

      .cls-84 {
        fill: #1d953e;
      }

      .cls-85 {
        fill: #58ba72;
      }

      .cls-86 {
        fill: #249944;
      }

      .cls-87 {
        fill: #75cc8a;
      }

      .cls-88 {
        fill: #289c48;
      }

      .cls-89 {
        fill: #55b86f;
      }

      .cls-90 {
        fill: #60bf78;
      }

      .cls-91 {
        fill: #299c48;
      }

      .cls-92 {
        fill: #39a656;
      }

      .cls-93 {
        fill: #40ab5c;
      }

      .cls-94 {
        fill: #209741;
      }

      .cls-95 {
        fill: #118e34;
      }

      .cls-96 {
        fill: #44ad60;
      }

      .cls-97 {
        fill: #219842;
      }

      .cls-98 {
        fill: #5ebe77;
      }

      .cls-99 {
        fill: #49b165;
      }

      .cls-100 {
        fill: #68c47f;
      }

      .cls-101 {
        fill: #56b970;
      }

      .cls-102 {
        fill: #269b46;
      }

      .cls-103 {
        fill: #279b47;
      }

      .cls-104 {
        fill: #33a351;
      }

      .cls-105 {
        fill: #76cd8b;
      }

      .cls-106 {
        fill: #78ce8d;
      }

      .cls-107 {
        fill: #3aa757;
      }

      .cls-108 {
        fill: #57ba71;
      }

      .cls-109 {
        fill: #73cb89;
      }
    </style>
    <filter id="luminosity-invert-noclip" x="0" y="-.67" width="247.72" height="248" color-interpolation-filters="sRGB" filterUnits="userSpaceOnUse">
      <feColorMatrix result="cm" values="-1 0 0 0 1 0 -1 0 0 1 0 0 -1 0 1 0 0 0 1 0"/>
      <feFlood flood-color="#fff" result="bg"/>
      <feBlend in="cm" in2="bg"/>
    </filter>
    <mask id="mask" x="0" y="-.67" width="247.72" height="248" maskUnits="userSpaceOnUse">
      <g class="cls-48">
        <g>
          <g>
            <path class="cls-60" d="M77.48-.67h31.02v22.67c0,8.56-6.95,15.51-15.51,15.51h0c-8.56,0-15.51-6.95-15.51-15.51V-.67h0Z"/>
            <path class="cls-60" d="M158.33-.67h31.02v22.67c0,8.56-6.95,15.51-15.51,15.51h0c-8.56,0-15.51-6.95-15.51-15.51V-.67h0Z"/>
          </g>
          <path class="cls-60" d="M190.37,86.68h-113.9c-4.55,0-8.23-3.69-8.23-8.23s3.69-8.23,8.23-8.23h113.9c4.55,0,8.23,3.69,8.23,8.23s-3.69,8.23-8.23,8.23Z"/>
          <path class="cls-60" d="M122.06,181.03c-2.11,0-4.23-.81-5.83-2.42l-33.01-33.14c-3.21-3.22-3.2-8.43.02-11.64,3.22-3.21,8.43-3.2,11.64.02l27.31,27.41,49.85-47.83c3.28-3.15,8.49-3.04,11.64.24,3.15,3.28,3.04,8.49-.24,11.64l-55.68,53.43c-1.59,1.53-3.65,2.29-5.7,2.29Z"/>
        </g>
      </g>
    </mask>
  </defs>
  <g class="cls-2">
    <g>
      <circle class="cls-69" cx="76.05" cy="189.98" r="57.35"/>
      <circle class="cls-95" cx="76.05" cy="185.28" r="57.35"/>
      <circle class="cls-17" cx="76.05" cy="180.58" r="57.35"/>
      <circle class="cls-5" cx="76.05" cy="175.87" r="57.35"/>
      <circle class="cls-7" cx="76.05" cy="171.17" r="57.35"/>
      <circle class="cls-40" cx="76.05" cy="166.47" r="57.35"/>
      <circle class="cls-51" cx="76.05" cy="161.76" r="57.35"/>
      <circle class="cls-21" cx="76.05" cy="157.06" r="57.35"/>
      <circle class="cls-46" cx="76.05" cy="152.35" r="57.35"/>
      <circle class="cls-79" cx="76.05" cy="147.65" r="57.35"/>
      <circle class="cls-33" cx="76.05" cy="142.95" r="57.35"/>
      <circle class="cls-45" cx="76.05" cy="138.24" r="57.35"/>
      <circle class="cls-28" cx="76.05" cy="133.54" r="57.35"/>
      <circle class="cls-84" cx="76.05" cy="128.83" r="57.35"/>
      <circle class="cls-18" cx="76.05" cy="124.13" r="57.35"/>
      <circle class="cls-73" cx="76.05" cy="119.43" r="57.35"/>
      <circle class="cls-94" cx="76.05" cy="114.72" r="57.35"/>
      <circle class="cls-97" cx="76.05" cy="110.02" r="57.35"/>
      <circle class="cls-57" cx="76.05" cy="105.32" r="57.35"/>
      <circle class="cls-63" cx="76.05" cy="100.61" r="57.35"/>
      <circle class="cls-86" cx="76.05" cy="95.91" r="57.35"/>
      <circle class="cls-6" cx="76.05" cy="91.2" r="57.35"/>
      <circle class="cls-102" cx="76.05" cy="86.5" r="57.35"/>
      <circle class="cls-103" cx="76.05" cy="81.8" r="57.35"/>
      <circle class="cls-88" cx="76.05" cy="77.09" r="57.35"/>
      <circle class="cls-91" cx="76.05" cy="72.39" r="57.35"/>
      <circle class="cls-77" cx="76.05" cy="67.68" r="57.35"/>
      <circle class="cls-61" cx="76.05" cy="62.98" r="57.35"/>
      <circle class="cls-78" cx="76.05" cy="58.28" r="57.35"/>
      <circle class="cls-38" cx="79.83" cy="57.35" r="57.35"/>
      <circle class="cls-26" cx="84.53" cy="57.35" r="57.35"/>
      <circle class="cls-39" cx="89.23" cy="57.35" r="57.35"/>
      <circle class="cls-19" cx="93.94" cy="57.35" r="57.35"/>
      <circle class="cls-62" cx="98.64" cy="57.35" r="57.35"/>
      <circle class="cls-32" cx="103.35" cy="57.35" r="57.35"/>
      <circle class="cls-104" cx="108.05" cy="57.35" r="57.35"/>
      <circle class="cls-3" cx="112.75" cy="57.35" r="57.35"/>
      <circle class="cls-81" cx="117.46" cy="57.35" r="57.35"/>
      <circle class="cls-49" cx="122.16" cy="57.35" r="57.35"/>
      <circle class="cls-53" cx="126.86" cy="57.35" r="57.35"/>
      <circle class="cls-10" cx="131.57" cy="57.35" r="57.35"/>
      <circle class="cls-92" cx="136.27" cy="57.35" r="57.35"/>
      <circle class="cls-107" cx="140.98" cy="57.35" r="57.35"/>
      <circle class="cls-76" cx="145.68" cy="57.35" r="57.35"/>
      <circle class="cls-59" cx="150.38" cy="57.35" r="57.35"/>
      <circle class="cls-68" cx="155.09" cy="57.35" r="57.35"/>
      <circle class="cls-83" cx="159.79" cy="57.35" r="57.35"/>
      <circle class="cls-8" cx="164.5" cy="57.35" r="57.35"/>
      <circle class="cls-93" cx="169.2" cy="57.35" r="57.35"/>
      <circle class="cls-50" cx="173.9" cy="57.35" r="57.35"/>
      <circle class="cls-15" cx="178.61" cy="57.35" r="57.35"/>
      <circle class="cls-31" cx="183.31" cy="57.35" r="57.35"/>
      <circle class="cls-96" cx="188.01" cy="57.35" r="57.35"/>
      <circle class="cls-24" cx="190.37" cy="59.7" r="57.35"/>
      <circle class="cls-22" cx="190.37" cy="64.4" r="57.35"/>
      <circle class="cls-82" cx="190.37" cy="69.11" r="57.35"/>
      <circle class="cls-44" cx="190.37" cy="73.81" r="57.35"/>
      <circle class="cls-54" cx="190.37" cy="78.52" r="57.35"/>
      <circle class="cls-99" cx="190.37" cy="83.22" r="57.35"/>
      <circle class="cls-35" cx="190.37" cy="87.92" r="57.35"/>
      <circle class="cls-72" cx="190.37" cy="92.63" r="57.35"/>
      <circle class="cls-56" cx="190.37" cy="97.33" r="57.35"/>
      <circle class="cls-41" cx="190.37" cy="102.04" r="57.35"/>
      <circle class="cls-9" cx="190.37" cy="106.74" r="57.35"/>
      <circle class="cls-47" cx="190.37" cy="111.44" r="57.35"/>
      <circle class="cls-43" cx="190.37" cy="116.15" r="57.35"/>
      <circle class="cls-30" cx="190.37" cy="120.85" r="57.35"/>
      <circle class="cls-25" cx="190.37" cy="125.55" r="57.35"/>
      <circle class="cls-34" cx="190.37" cy="130.26" r="57.35"/>
      <circle class="cls-11" cx="190.37" cy="134.96" r="57.35"/>
      <circle class="cls-89" cx="190.37" cy="139.67" r="57.35"/>
      <circle class="cls-101" cx="190.37" cy="144.37" r="57.35"/>
      <circle class="cls-108" cx="190.37" cy="149.07" r="57.35"/>
      <circle class="cls-85" cx="190.37" cy="153.78" r="57.35"/>
      <circle class="cls-52" cx="190.37" cy="158.48" r="57.35"/>
      <circle class="cls-67" cx="190.37" cy="163.19" r="57.35"/>
      <circle class="cls-1" cx="190.37" cy="167.89" r="57.35"/>
      <circle class="cls-20" cx="189.06" cy="171.28" r="57.35"/>
      <circle class="cls-55" cx="184.35" cy="171.28" r="57.35"/>
      <circle class="cls-98" cx="179.65" cy="171.28" r="57.35"/>
      <circle class="cls-74" cx="174.95" cy="171.28" r="57.35"/>
      <circle class="cls-90" cx="170.24" cy="171.28" r="57.35"/>
      <circle class="cls-58" cx="165.54" cy="171.28" r="57.35"/>
      <circle class="cls-80" cx="160.83" cy="171.28" r="57.35"/>
      <circle class="cls-71" cx="156.13" cy="171.28" r="57.35"/>
      <circle class="cls-23" cx="151.43" cy="171.28" r="57.35"/>
      <circle class="cls-66" cx="146.72" cy="171.28" r="57.35"/>
      <circle class="cls-13" cx="142.02" cy="171.28" r="57.35"/>
      <circle class="cls-4" cx="137.31" cy="171.28" r="57.35"/>
      <circle class="cls-100" cx="132.61" cy="171.28" r="57.35"/>
      <circle class="cls-36" cx="127.91" cy="171.28" r="57.35"/>
      <circle class="cls-65" cx="123.2" cy="171.28" r="57.35"/>
      <circle class="cls-14" cx="118.5" cy="171.28" r="57.35"/>
      <circle class="cls-37" cx="113.8" cy="171.28" r="57.35"/>
      <circle class="cls-16" cx="109.09" cy="171.28" r="57.35"/>
      <circle class="cls-70" cx="104.39" cy="171.28" r="57.35"/>
      <circle class="cls-29" cx="99.68" cy="171.28" r="57.35"/>
      <circle class="cls-42" cx="94.98" cy="171.28" r="57.35"/>
      <circle class="cls-12" cx="90.28" cy="171.28" r="57.35"/>
      <circle class="cls-27" cx="85.57" cy="171.28" r="57.35"/>
      <circle class="cls-109" cx="80.87" cy="171.28" r="57.35"/>
      <circle class="cls-64" cx="76.16" cy="171.28" r="57.35"/>
      <circle class="cls-87" cx="71.46" cy="171.28" r="57.35"/>
      <circle class="cls-105" cx="66.76" cy="171.28" r="57.35"/>
      <circle class="cls-75" cx="62.05" cy="171.28" r="57.35"/>
      <circle class="cls-106" cx="57.35" cy="171.28" r="57.35"/>
    </g>
  </g>
</svg>