<?xml version="1.0" encoding="UTF-8"?>
<svg id="Layer_1" data-name="Layer 1" xmlns="http://www.w3.org/2000/svg" xmlns:xlink="http://www.w3.org/1999/xlink" viewBox="0 0 664.46 248">
  <defs>
    <style>
      .cls-1 {
        fill: #5bbc74;
      }

      .cls-2 {
        mask: url(#mask);
      }

      .cls-3 {
        fill: #34a352;
      }

      .cls-4 {
        fill: #67c37e;
      }

      .cls-5 {
        fill: #138f36;
      }

      .cls-6 {
        fill: #259a45;
      }

      .cls-7 {
        fill: #148f36;
      }

      .cls-8 {
        fill: #3faa5b;
      }

      .cls-9 {
        fill: #4eb469;
      }

      .cls-10 {
        fill: #38a655;
      }

      .cls-11 {
        fill: #54b86e;
      }

      .cls-12 {
        fill: #71ca87;
      }

      .cls-13 {
        fill: #66c37e;
      }

      .cls-14 {
        fill: #6bc682;
      }

      .cls-15 {
        fill: #42ac5e;
      }

      .cls-16 {
        fill: #6dc784;
      }

      .cls-17 {
        fill: #128e35;
      }

      .cls-18 {
        fill: #1e963f;
      }

      .cls-19 {
        fill: #30a14e;
      }

      .cls-20 {
        fill: #5cbd75;
      }

      .cls-21 {
        fill: #179139;
      }

      .cls-22 {
        fill: #45ae61;
      }

      .cls-23 {
        fill: #64c27c;
      }

      .cls-24 {
        fill: #44ae60;
      }

      .cls-25 {
        fill: #52b66c;
      }

      .cls-26 {
        fill: #2ea04d;
      }

      .cls-27 {
        fill: #72ca88;
      }

      .cls-28 {
        fill: #1c943d;
      }

      .cls-29 {
        fill: #6fc885;
      }

      .cls-30 {
        fill: #51b66c;
      }

      .cls-31 {
        fill: #43ad5f;
      }

      .cls-32 {
        fill: #32a250;
      }

      .cls-33 {
        fill: #1a933c;
      }

      .cls-34 {
        fill: #53b76d;
      }

      .cls-35 {
        fill: #4ab266;
      }

      .cls-36 {
        fill: #69c580;
      }

      .cls-37 {
        fill: #6cc783;
      }

      .cls-38 {
        fill: #2d9f4c;
      }

      .cls-39 {
        fill: #2fa04e;
      }

      .cls-40 {
        fill: #159037;
      }

      .cls-41 {
        fill: #4db368;
      }

      .cls-42 {
        fill: #70c986;
      }

      .cls-43 {
        fill: #50b56b;
      }

      .cls-44 {
        fill: #47b063;
      }

      .cls-45 {
        fill: #1b943c;
      }

      .cls-46 {
        fill: #18923a;
      }

      .cls-47 {
        fill: #4fb56a;
      }

      .cls-48 {
        filter: url(#luminosity-invert-noclip);
      }

      .cls-49 {
        fill: #36a554;
      }

      .cls-50 {
        fill: #41ab5d;
      }

      .cls-51 {
        fill: #169138;
      }

      .cls-52 {
        fill: #59bb72;
      }

      .cls-53 {
        fill: #37a554;
      }

      .cls-54 {
        fill: #48b064;
      }

      .cls-55 {
        fill: #5dbd76;
      }

      .cls-56 {
        fill: #4cb367;
      }

      .cls-57 {
        fill: #229842;
      }

      .cls-58 {
        fill: #61c079;
      }

      .cls-59 {
        fill: #3ca859;
      }

      .cls-60 {
        fill: #fff;
      }

      .cls-61 {
        fill: #2b9e4a;
      }

      .cls-62 {
        fill: #31a14f;
      }

      .cls-63 {
        fill: #239943;
      }

      .cls-64 {
        fill: #74cc8a;
      }

      .cls-65 {
        fill: #6ac581;
      }

      .cls-66 {
        fill: #65c27d;
      }

      .cls-67 {
        fill: #5abb73;
      }

      .cls-68 {
        fill: #3da95a;
      }

      .cls-69 {
        fill: #108d33;
      }

      .cls-70 {
        fill: #6ec884;
      }

      .cls-71 {
        fill: #63c17b;
      }

      .cls-72 {
        fill: #4bb266;
      }

      .cls-73 {
        fill: #1f9640;
      }

      .cls-74 {
        fill: #5fbf78;
      }

      .cls-75 {
        fill: #77cd8c;
      }

      .cls-76 {
        fill: #3ba858;
      }

      .cls-77 {
        fill: #2a9d49;
      }

      .cls-78 {
        fill: #2c9e4b;
      }

      .cls-79 {
        fill: #19933b;
      }

      .cls-80 {
        fill: #62c07a;
      }

      .cls-81 {
        fill: #35a453;
      }

      .cls-82 {
        fill: #46af62;
      }

      .cls-83 {
        fill: #3ea95a;
      }

      .cls-84 {
        fill: #1d953e;
      }

      .cls-85 {
        fill: #58ba72;
      }

      .cls-86 {
        fill: #249944;
      }

      .cls-87 {
        fill: #75cc8a;
      }

      .cls-88 {
        fill: #289c48;
      }

      .cls-89 {
        fill: #55b86f;
      }

      .cls-90 {
        fill: #60bf78;
      }

      .cls-91 {
        fill: #299c48;
      }

      .cls-92 {
        fill: #39a656;
      }

      .cls-93 {
        fill: #40ab5c;
      }

      .cls-94 {
        fill: #209741;
      }

      .cls-95 {
        fill: #118e34;
      }

      .cls-96 {
        fill: #44ad60;
      }

      .cls-97 {
        fill: #219842;
      }

      .cls-98 {
        fill: #5ebe77;
      }

      .cls-99 {
        fill: #49b165;
      }

      .cls-100 {
        fill: #68c47f;
      }

      .cls-101 {
        fill: #56b970;
      }

      .cls-102 {
        fill: #269b46;
      }

      .cls-103 {
        fill: #279b47;
      }

      .cls-104 {
        fill: #33a351;
      }

      .cls-105 {
        fill: #76cd8b;
      }

      .cls-106 {
        fill: #78ce8d;
      }

      .cls-107 {
        fill: #3aa757;
      }

      .cls-108 {
        fill: #57ba71;
      }

      .cls-109 {
        fill: #73cb89;
      }
    </style>
    <filter id="luminosity-invert-noclip" x="0" y="-.33" width="247.72" height="248" color-interpolation-filters="sRGB" filterUnits="userSpaceOnUse">
      <feColorMatrix result="cm" values="-1 0 0 0 1 0 -1 0 0 1 0 0 -1 0 1 0 0 0 1 0"/>
      <feFlood flood-color="#fff" result="bg"/>
      <feBlend in="cm" in2="bg"/>
    </filter>
    <mask id="mask" x="0" y="-.33" width="247.72" height="248" maskUnits="userSpaceOnUse">
      <g class="cls-48">
        <g>
          <g>
            <path class="cls-60" d="M77.48-.33h31.02v22.67c0,8.56-6.95,15.51-15.51,15.51h0c-8.56,0-15.51-6.95-15.51-15.51V-.33h0Z"/>
            <path class="cls-60" d="M158.33-.33h31.02v22.67c0,8.56-6.95,15.51-15.51,15.51h0c-8.56,0-15.51-6.95-15.51-15.51V-.33h0Z"/>
          </g>
          <path class="cls-60" d="M190.37,87.01h-113.9c-4.55,0-8.23-3.69-8.23-8.23s3.69-8.23,8.23-8.23h113.9c4.55,0,8.23,3.69,8.23,8.23s-3.69,8.23-8.23,8.23Z"/>
          <path class="cls-60" d="M122.06,181.37c-2.11,0-4.23-.81-5.83-2.42l-33.01-33.14c-3.21-3.22-3.2-8.43.02-11.64,3.22-3.21,8.43-3.2,11.64.02l27.31,27.41,49.85-47.83c3.28-3.15,8.49-3.04,11.64.24,3.15,3.28,3.04,8.49-.24,11.64l-55.68,53.43c-1.59,1.53-3.65,2.29-5.7,2.29Z"/>
        </g>
      </g>
    </mask>
  </defs>
  <g>
    <g>
      <path d="M333.95,126v59.67c0,5.35-4.35,9.7-9.99,9.7s-9.85-4.34-9.85-9.7v-59.67h-16.08c-5.21,0-9.7-4.49-9.7-9.85s4.49-9.85,9.7-9.85h51.7c5.65,0,9.85,4.35,9.85,9.85s-4.2,9.85-9.85,9.85h-15.78Z"/>
      <path d="M380.88,112.24c1.74-4.2,5.79-5.94,9.99-5.94s8.11,1.74,9.7,5.94l29.68,69.37c2.32,5.07,0,10.86-5.07,12.88-1.3.73-2.46.87-3.91.87-3.77,0-7.39-2.17-8.98-5.94l-4.05-9.41h-34.9l-4.06,9.41c-1.59,3.77-5.21,5.94-8.98,5.94-1.3,0-2.75-.14-4.05-.87-5.07-2.02-7.39-7.82-5.07-12.88l29.69-69.37ZM390.87,139.32l-9.12,20.86h17.81l-8.69-20.86Z"/>
      <path d="M435.43,129.76c.73-12.02,10.28-23.46,28.53-23.47h28.82c5.36,0,9.85,4.35,9.85,9.85s-4.49,9.85-9.85,9.85h-29.83c-4.06,0-6.08,2.46-6.38,4.93,0,2.46,1.74,4.92,5.36,6.23l28.1,9.12c13.18,4.35,18.97,15.07,18.54,25.64-.72,12.03-10.29,23.46-28.82,23.46h-30.7c-5.5,0-9.99-4.34-9.99-9.7,0-5.65,4.49-10.14,9.99-10.14h31.72c4.05,0,6.37-2.31,6.37-4.93,0-2.32-1.6-4.93-5.36-5.94l-27.95-9.27c-13.18-4.49-18.83-15.21-18.39-25.64Z"/>
      <path d="M528.38,106.3c5.36,0,9.7,4.35,9.7,9.85v26.94l29.55-33.31c2.03-2.32,4.93-3.48,7.53-3.48,2.31,0,4.63.73,6.52,2.33,4.05,3.62,4.49,9.99,1.01,14.19l-19.4,21.87,20.42,35.92c2.75,4.78,1.16,10.57-3.48,13.61-1.6.86-3.19,1.15-4.93,1.15-3.48,0-6.8-1.74-8.69-4.92l-17.38-29.98-11.15,12.75v12.31c0,5.36-4.34,9.85-9.7,9.85-5.65,0-10.14-4.49-10.14-9.85v-69.37c0-5.5,4.49-9.85,10.14-9.85Z"/>
      <path d="M591.3,129.76c.73-12.02,10.29-23.46,28.53-23.47h28.82c5.36,0,9.85,4.35,9.85,9.85s-4.49,9.85-9.85,9.85h-29.83c-4.06,0-6.08,2.46-6.38,4.93,0,2.46,1.74,4.92,5.36,6.23l28.1,9.12c13.17,4.35,18.97,15.07,18.53,25.64-.72,12.03-10.28,23.46-28.82,23.46h-30.7c-5.5,0-9.99-4.34-9.99-9.7,0-5.65,4.49-10.14,9.99-10.14h31.72c4.05,0,6.37-2.31,6.37-4.93,0-2.32-1.59-4.93-5.36-5.94l-27.95-9.27c-13.18-4.49-18.83-15.21-18.39-25.64Z"/>
    </g>
    <g>
      <g>
        <path d="M288.32,40.81c0-1.34,1.07-2.41,2.28-2.41h13.61c7.44,0,13.48,6.1,13.48,13.48s-6.04,13.34-13.48,13.34h-11.26v12.2c0,1.21-1.07,2.28-2.35,2.28s-2.28-1.07-2.28-2.28v-36.61ZM292.95,43.09v17.57h11.26c4.89,0,8.78-4.02,8.78-8.78s-3.89-8.78-8.78-8.78h-11.26Z"/>
        <path d="M349.72,38.4c1.21,0,2.28,1.07,2.28,2.41,0,1.21-1.07,2.28-2.28,2.28h-21.66v13.68h18.98c1.27,0,2.28,1.07,2.28,2.28,0,1.27-1.01,2.28-2.28,2.28h-18.98v13.68h21.66c1.21,0,2.28,1.14,2.28,2.42,0,1.21-1.07,2.28-2.28,2.28h-23.94c-1.28,0-2.35-1.07-2.35-2.28v-36.61c0-1.41,1.07-2.41,2.35-2.41h23.94Z"/>
        <path d="M371.83,43.09v34.33c0,1.21-1.07,2.28-2.35,2.28-1.21,0-2.28-1.07-2.28-2.28v-34.33h-10.73c-1.21,0-2.28-1.07-2.28-2.28,0-1.34,1.07-2.41,2.28-2.41h26.08c1.21,0,2.21,1.07,2.21,2.41,0,1.21-1.01,2.28-2.21,2.28h-10.73Z"/>
        <path d="M389.3,40.81c0-1.34,1.07-2.41,2.28-2.41h13.61c7.44,0,13.48,6.1,13.48,13.48s-6.04,13.34-13.48,13.34h-11.26v12.2c0,1.21-1.07,2.28-2.35,2.28s-2.28-1.07-2.28-2.28v-36.61ZM393.93,43.09v17.57h11.26c4.89,0,8.78-4.02,8.78-8.78s-3.89-8.78-8.78-8.78h-11.26Z"/>
        <path d="M519.51,38.4c1.34,0,2.41,1.07,2.41,2.41v23.67c0,8.38-6.77,15.15-15.15,15.22-1.27,0-2.35-1.01-2.35-2.28s1.01-2.42,2.35-2.42c5.77,0,10.53-4.69,10.53-10.53v-23.67c0-1.34,1.01-2.41,2.21-2.41Z"/>
        <path d="M540.86,39.8c.34-.94,1.34-1.41,2.28-1.41s1.81.47,2.28,1.41l15.42,36.68c.54,1.2,0,2.48-1.21,3.02-.27.14-.54.2-.87.2-.87,0-1.68-.53-2.08-1.41l-3.42-8.05h-20.32l-3.35,8.05c-.33.87-1.27,1.41-2.15,1.41-.27,0-.6-.07-.87-.2-1.21-.53-1.74-1.81-1.21-3.02l15.49-36.68ZM543.14,46.17l-8.25,19.51h16.36l-8.12-19.51Z"/>
      </g>
      <g>
        <path d="M451.51,79.76c-13.69,0-24.83-11.14-24.83-24.83s11.14-24.83,24.83-24.83,24.83,11.14,24.83,24.83c0,1.26-1.02,2.28-2.28,2.28s-2.28-1.02-2.28-2.28c0-11.17-9.09-20.27-20.27-20.27s-20.27,9.09-20.27,20.27,9.09,20.27,20.27,20.27c1.26,0,2.28,1.02,2.28,2.28s-1.02,2.28-2.28,2.28Z"/>
        <path d="M478.84,79.76c-11.52,0-20.9-9.38-20.9-20.9,0-1.26,1.02-2.28,2.28-2.28s2.28,1.02,2.28,2.28c0,9.01,7.33,16.34,16.34,16.34s16.34-7.33,16.34-16.34-7.33-16.34-16.34-16.34c-1.26,0-2.28-1.02-2.28-2.28s1.02-2.28,2.28-2.28c11.52,0,20.9,9.38,20.9,20.9s-9.38,20.9-20.9,20.9Z"/>
      </g>
    </g>
  </g>
  <g class="cls-2">
    <g>
      <circle class="cls-69" cx="76.05" cy="190.32" r="57.35"/>
      <circle class="cls-95" cx="76.05" cy="185.61" r="57.35"/>
      <circle class="cls-17" cx="76.05" cy="180.91" r="57.35"/>
      <circle class="cls-5" cx="76.05" cy="176.21" r="57.35"/>
      <circle class="cls-7" cx="76.05" cy="171.5" r="57.35"/>
      <circle class="cls-40" cx="76.05" cy="166.8" r="57.35"/>
      <circle class="cls-51" cx="76.05" cy="162.09" r="57.35"/>
      <circle class="cls-21" cx="76.05" cy="157.39" r="57.35"/>
      <circle class="cls-46" cx="76.05" cy="152.69" r="57.35"/>
      <circle class="cls-79" cx="76.05" cy="147.98" r="57.35"/>
      <circle class="cls-33" cx="76.05" cy="143.28" r="57.35"/>
      <circle class="cls-45" cx="76.05" cy="138.58" r="57.35"/>
      <circle class="cls-28" cx="76.05" cy="133.87" r="57.35"/>
      <circle class="cls-84" cx="76.05" cy="129.17" r="57.35"/>
      <circle class="cls-18" cx="76.05" cy="124.46" r="57.35"/>
      <circle class="cls-73" cx="76.05" cy="119.76" r="57.35"/>
      <circle class="cls-94" cx="76.05" cy="115.06" r="57.35"/>
      <circle class="cls-97" cx="76.05" cy="110.35" r="57.35"/>
      <circle class="cls-57" cx="76.05" cy="105.65" r="57.35"/>
      <circle class="cls-63" cx="76.05" cy="100.94" r="57.35"/>
      <circle class="cls-86" cx="76.05" cy="96.24" r="57.35"/>
      <circle class="cls-6" cx="76.05" cy="91.54" r="57.35"/>
      <circle class="cls-102" cx="76.05" cy="86.83" r="57.35"/>
      <circle class="cls-103" cx="76.05" cy="82.13" r="57.35"/>
      <circle class="cls-88" cx="76.05" cy="77.43" r="57.35"/>
      <circle class="cls-91" cx="76.05" cy="72.72" r="57.35"/>
      <circle class="cls-77" cx="76.05" cy="68.02" r="57.35"/>
      <circle class="cls-61" cx="76.05" cy="63.31" r="57.35"/>
      <circle class="cls-78" cx="76.05" cy="58.61" r="57.35"/>
      <circle class="cls-38" cx="79.83" cy="57.68" r="57.35"/>
      <circle class="cls-26" cx="84.53" cy="57.68" r="57.35"/>
      <circle class="cls-39" cx="89.23" cy="57.68" r="57.35"/>
      <circle class="cls-19" cx="93.94" cy="57.68" r="57.35"/>
      <circle class="cls-62" cx="98.64" cy="57.68" r="57.35"/>
      <circle class="cls-32" cx="103.35" cy="57.68" r="57.35"/>
      <circle class="cls-104" cx="108.05" cy="57.68" r="57.35"/>
      <circle class="cls-3" cx="112.75" cy="57.68" r="57.35"/>
      <circle class="cls-81" cx="117.46" cy="57.68" r="57.35"/>
      <circle class="cls-49" cx="122.16" cy="57.68" r="57.35"/>
      <circle class="cls-53" cx="126.86" cy="57.68" r="57.35"/>
      <circle class="cls-10" cx="131.57" cy="57.68" r="57.35"/>
      <circle class="cls-92" cx="136.27" cy="57.68" r="57.35"/>
      <circle class="cls-107" cx="140.98" cy="57.68" r="57.35"/>
      <circle class="cls-76" cx="145.68" cy="57.68" r="57.35"/>
      <circle class="cls-59" cx="150.38" cy="57.68" r="57.35"/>
      <circle class="cls-68" cx="155.09" cy="57.68" r="57.35"/>
      <circle class="cls-83" cx="159.79" cy="57.68" r="57.35"/>
      <circle class="cls-8" cx="164.5" cy="57.68" r="57.35"/>
      <circle class="cls-93" cx="169.2" cy="57.68" r="57.35"/>
      <circle class="cls-50" cx="173.9" cy="57.68" r="57.35"/>
      <circle class="cls-15" cx="178.61" cy="57.68" r="57.35"/>
      <circle class="cls-31" cx="183.31" cy="57.68" r="57.35"/>
      <circle class="cls-96" cx="188.01" cy="57.68" r="57.35"/>
      <circle class="cls-24" cx="190.37" cy="60.03" r="57.35"/>
      <circle class="cls-22" cx="190.37" cy="64.74" r="57.35"/>
      <circle class="cls-82" cx="190.37" cy="69.44" r="57.35"/>
      <circle class="cls-44" cx="190.37" cy="74.15" r="57.35"/>
      <circle class="cls-54" cx="190.37" cy="78.85" r="57.35"/>
      <circle class="cls-99" cx="190.37" cy="83.55" r="57.35"/>
      <circle class="cls-35" cx="190.37" cy="88.26" r="57.35"/>
      <circle class="cls-72" cx="190.37" cy="92.96" r="57.35"/>
      <circle class="cls-56" cx="190.37" cy="97.66" r="57.35"/>
      <circle class="cls-41" cx="190.37" cy="102.37" r="57.35"/>
      <circle class="cls-9" cx="190.37" cy="107.07" r="57.35"/>
      <circle class="cls-47" cx="190.37" cy="111.78" r="57.35"/>
      <circle class="cls-43" cx="190.37" cy="116.48" r="57.35"/>
      <circle class="cls-30" cx="190.37" cy="121.18" r="57.35"/>
      <circle class="cls-25" cx="190.37" cy="125.89" r="57.35"/>
      <circle class="cls-34" cx="190.37" cy="130.59" r="57.35"/>
      <circle class="cls-11" cx="190.37" cy="135.3" r="57.35"/>
      <circle class="cls-89" cx="190.37" cy="140" r="57.35"/>
      <circle class="cls-101" cx="190.37" cy="144.7" r="57.35"/>
      <circle class="cls-108" cx="190.37" cy="149.41" r="57.35"/>
      <circle class="cls-85" cx="190.37" cy="154.11" r="57.35"/>
      <circle class="cls-52" cx="190.37" cy="158.81" r="57.35"/>
      <circle class="cls-67" cx="190.37" cy="163.52" r="57.35"/>
      <circle class="cls-1" cx="190.37" cy="168.22" r="57.35"/>
      <circle class="cls-20" cx="189.06" cy="171.62" r="57.35"/>
      <circle class="cls-55" cx="184.35" cy="171.62" r="57.35"/>
      <circle class="cls-98" cx="179.65" cy="171.62" r="57.35"/>
      <circle class="cls-74" cx="174.95" cy="171.62" r="57.35"/>
      <circle class="cls-90" cx="170.24" cy="171.62" r="57.35"/>
      <circle class="cls-58" cx="165.54" cy="171.62" r="57.35"/>
      <circle class="cls-80" cx="160.83" cy="171.62" r="57.35"/>
      <circle class="cls-71" cx="156.13" cy="171.62" r="57.35"/>
      <circle class="cls-23" cx="151.43" cy="171.62" r="57.35"/>
      <circle class="cls-66" cx="146.72" cy="171.62" r="57.35"/>
      <circle class="cls-13" cx="142.02" cy="171.62" r="57.35"/>
      <circle class="cls-4" cx="137.31" cy="171.62" r="57.35"/>
      <circle class="cls-100" cx="132.61" cy="171.62" r="57.35"/>
      <circle class="cls-36" cx="127.91" cy="171.62" r="57.35"/>
      <circle class="cls-65" cx="123.2" cy="171.62" r="57.35"/>
      <circle class="cls-14" cx="118.5" cy="171.62" r="57.35"/>
      <circle class="cls-37" cx="113.8" cy="171.62" r="57.35"/>
      <circle class="cls-16" cx="109.09" cy="171.62" r="57.35"/>
      <circle class="cls-70" cx="104.39" cy="171.62" r="57.35"/>
      <circle class="cls-29" cx="99.68" cy="171.62" r="57.35"/>
      <circle class="cls-42" cx="94.98" cy="171.62" r="57.35"/>
      <circle class="cls-12" cx="90.28" cy="171.62" r="57.35"/>
      <circle class="cls-27" cx="85.57" cy="171.62" r="57.35"/>
      <circle class="cls-109" cx="80.87" cy="171.62" r="57.35"/>
      <circle class="cls-64" cx="76.16" cy="171.62" r="57.35"/>
      <circle class="cls-87" cx="71.46" cy="171.62" r="57.35"/>
      <circle class="cls-105" cx="66.76" cy="171.62" r="57.35"/>
      <circle class="cls-75" cx="62.05" cy="171.62" r="57.35"/>
      <circle class="cls-106" cx="57.35" cy="171.62" r="57.35"/>
    </g>
  </g>
</svg>